<svg id="Layer_3" height="512" viewBox="0 0 64 64" width="512" xmlns="http://www.w3.org/2000/svg" data-name="Layer 3"><rect fill="#ccc" height="50" rx="4" width="60" x="2" y="7"/><path d="m4 19h56a0 0 0 0 1 0 0v33a3 3 0 0 1 -3 3h-50a3 3 0 0 1 -3-3v-33a0 0 0 0 1 0 0z" fill="#fff"/><rect fill="#aa2b24" height="22" rx="2" width="48" x="8" y="25"/><path d="m10 25a2 2 0 0 0 -2 2v16h40a3 3 0 0 0 3-3v-15z" fill="#d24034"/><path d="m58 7h-52a4 4 0 0 0 -4 4v8h60v-8a4 4 0 0 0 -4-4z" fill="#aa2b24"/><path d="m54 16a3 3 0 0 0 3-3v-6h-51a4 4 0 0 0 -4 4v5z" fill="#d24034"/><g fill="#fff"><circle cx="8" cy="13" r="2"/><circle cx="15" cy="13" r="2"/><circle cx="22" cy="13" r="2"/><rect height="4" rx="2" width="22" x="28" y="11"/></g><path d="m43 53-2-8 8 1.999-4 2.001z" fill="#bce4f8"/><path d="m58 6h-52a5.006 5.006 0 0 0 -5 5v42a5.006 5.006 0 0 0 5 5h52a5.006 5.006 0 0 0 5-5v-42a5.006 5.006 0 0 0 -5-5zm-52 2h52a3 3 0 0 1 3 3v7h-58v-7a3 3 0 0 1 3-3zm52 48h-52a3 3 0 0 1 -3-3v-33h58v33a3 3 0 0 1 -3 3z"/><path d="m8 16a3 3 0 1 0 -3-3 3 3 0 0 0 3 3zm0-4a1 1 0 1 1 -1 1 1 1 0 0 1 1-1z"/><path d="m15 16a3 3 0 1 0 -3-3 3 3 0 0 0 3 3zm0-4a1 1 0 1 1 -1 1 1 1 0 0 1 1-1z"/><path d="m22 16a3 3 0 1 0 -3-3 3 3 0 0 0 3 3zm0-4a1 1 0 1 1 -1 1 1 1 0 0 1 1-1z"/><path d="m54 24h-44a3 3 0 0 0 -3 3v18a3 3 0 0 0 3 3h29v-2h-29a1 1 0 0 1 -1-1v-18a1 1 0 0 1 1-1h44a1 1 0 0 1 1 1v18a1 1 0 0 1 -1 1h-3v2h3a3 3 0 0 0 3-3v-18a3 3 0 0 0 -3-3z"/><path d="m49.242 46.029-8-2a1 1 0 0 0 -1.212 1.213l2 8a1 1 0 0 0 1.865.2l1.851-3.7 3.7-1.851a1 1 0 0 0 -.205-1.865zm-4.689 2.076a1.006 1.006 0 0 0 -.448.448l-.791 1.582-.939-3.761 3.76.94z"/><path d="m25 42v-2h2v-2h-2v-7a1 1 0 0 0 -1.848-.53l-5 8a1 1 0 0 0 .848 1.53h4v2zm-4.2-4 2.2-3.513v3.513z"/><path d="m43.276 30.039a1 1 0 0 0 -1.124.431l-5 8a1 1 0 0 0 .848 1.53h4v2h2v-2h2v-2h-2v-7a1 1 0 0 0 -.724-.961zm-1.276 7.961h-2.2l2.2-3.513z"/><path d="m28 34v4a4 4 0 0 0 8 0v-4a4 4 0 0 0 -8 0zm6 0v4a2 2 0 0 1 -4 0v-4a2 2 0 0 1 4 0z"/><path d="m56 16a2.951 2.951 0 0 0 1.285-.3l1.008 1.008 1.414-1.414-1.007-1.009a2.951 2.951 0 0 0 .3-1.285 3 3 0 1 0 -3 3zm0-4a1 1 0 1 1 -1 1 1 1 0 0 1 1-1z"/><path d="m30 16h18a3 3 0 0 0 0-6h-18a3 3 0 0 0 0 6zm0-4h18a1 1 0 0 1 0 2h-18a1 1 0 0 1 0-2z"/></svg>